<?xml version="1.0" encoding="UTF-8" standalone="no"?>
<!-- Created with Inkscape (http://www.inkscape.org/) -->

<svg
   width="596.43213mm"
   height="206.93251mm"
   viewBox="0 0 596.43213 206.93251"
   version="1.1"
   id="svg1"
   xml:space="preserve"
   xmlns="http://www.w3.org/2000/svg"
   xmlns:svg="http://www.w3.org/2000/svg"><defs
     id="defs1" /><g
     id="layer1"
     transform="translate(170.70938,-327.89158)"><g
       id="g14"
       transform="matrix(0.34488752,0,0,0.34488752,242.1519,327.89158)"
       style="fill:#ffc220;fill-opacity:1">
	<path
   style="fill:#ffc220;fill-opacity:1"
   d="m 375.663,273.363 c 12.505,-2.575 123.146,-53.269 133.021,-58.97 22.547,-13.017 30.271,-41.847 17.254,-64.393 -13.017,-22.546 -41.847,-30.271 -64.393,-17.254 -9.876,5.702 -109.099,76.172 -117.581,85.715 -9.721,10.937 -11.402,26.579 -4.211,39.033 7.192,12.455 21.578,18.82 35.91,15.869 z"
   id="path2" />
	<path
   style="fill:#ffc220;fill-opacity:1"
   d="m 508.685,385.607 c -9.876,-5.702 -120.516,-56.396 -133.021,-58.97 -14.332,-2.951 -28.719,3.415 -35.909,15.87 -7.191,12.455 -5.51,28.097 4.211,39.033 8.482,9.542 107.705,80.013 117.581,85.715 22.546,13.017 51.376,5.292 64.393,-17.254 13.017,-22.546 5.291,-51.377 -17.255,-64.394 z"
   id="path4" />
	<path
   style="fill:#ffc220;fill-opacity:1"
   d="m 266.131,385.012 c -14.382,0 -27.088,9.276 -31.698,23.164 -4.023,12.117 -15.441,133.282 -15.441,144.685 0,26.034 21.105,47.139 47.139,47.139 26.034,0 47.139,-21.105 47.139,-47.139 0,-11.403 -11.418,-132.568 -15.441,-144.685 -4.61,-13.888 -17.316,-23.164 -31.698,-23.164 z"
   id="path6" />
	<path
   style="fill:#ffc220;fill-opacity:1"
   d="M 156.599,326.637 C 144.094,329.212 33.453,379.906 23.578,385.607 1.031,398.624 -6.694,427.454 6.323,450 c 13.017,22.546 41.847,30.271 64.393,17.254 9.876,-5.702 109.098,-76.172 117.58,-85.715 9.722,-10.937 11.402,-26.579 4.211,-39.033 -7.191,-12.454 -21.576,-18.82 -35.908,-15.869 z"
   id="path8" />
	<path
   style="fill:#ffc220;fill-opacity:1"
   d="M 70.717,132.746 C 48.171,119.729 19.341,127.454 6.323,150 c -13.017,22.546 -5.292,51.376 17.254,64.393 9.876,5.702 120.517,56.396 133.021,58.97 14.332,2.951 28.719,-3.415 35.91,-15.87 7.191,-12.455 5.51,-28.096 -4.211,-39.033 -8.482,-9.542 -107.705,-80.013 -117.58,-85.714 z"
   id="path10" />
	<path
   style="fill:#ffc220;fill-opacity:1"
   d="m 266.131,0 c -26.035,0 -47.139,21.105 -47.139,47.139 0,11.403 11.418,132.568 15.441,144.685 4.611,13.888 17.317,23.164 31.698,23.164 14.381,0 27.088,-9.276 31.698,-23.164 C 301.852,179.707 313.27,58.542 313.27,47.139 313.27,21.105 292.165,0 266.131,0 Z"
   id="path12" />
</g><g
       id="g70"
       transform="matrix(4.4093677,0,0,4.4093677,-528.63986,1132.4594)"><g
         id="g12" /><g
         id="g68"
         style="fill:#ffffff;fill-opacity:1"><g
           id="g60"
           style="fill:#ffffff;fill-opacity:1"><path
             class="st5"
             d="m 92.996979,-172.84124 c 0,0 -2.756398,9.75341 -4.664674,17.38651 l -0.848123,2.96843 c -0.424061,1.48422 0.636092,1.48422 0.636092,1.48422 h 5.300767 l -1.272184,4.8767 h -5.936859 v 0 c 0,0 -2.756398,0.21203 -4.028582,-1.27218 -1.272184,-1.48422 -1.060153,-2.96843 -0.848123,-3.81655 0,-0.63609 2.544368,-10.17747 2.544368,-10.17747 l 3.18046,-11.44966 z"
             id="path34-7"
             style="fill:#0053e2;fill-opacity:1;stroke-width:2.12031" /><path
             class="st5"
             d="m 130.73844,-172.84124 -4.24062,17.59855 c -2.54436,9.11731 -11.87371,9.32934 -11.87371,9.32934 -5.30076,0.42407 -9.75341,-1.69624 -10.17747,-6.36092 -1.06015,-9.75341 9.54138,-15.90229 18.65869,-12.08574 0.63609,-2.7564 1.69625,-5.30077 2.12031,-8.2692 h 5.5128 z m -19.29479,14.20605 c -1.06015,1.69625 -1.90827,4.87671 -0.63609,6.99702 1.27219,2.33233 5.51279,2.33233 7.6331,0.63609 2.12031,-1.69625 2.96843,-6.57295 3.81655,-9.75341 -3.81655,-2.7564 -8.90528,-0.84812 -10.81356,2.1203"
             id="path36-1"
             style="fill:#0053e2;fill-opacity:1;stroke-width:2.12031" /><path
             class="st5"
             d="m 133.9189,-154.6066 c -1.06016,6.36092 8.48122,5.30076 11.66168,2.96843 -0.42406,1.48421 -0.42406,3.18046 -0.63609,4.66467 -7.42107,2.33234 -15.9023,0.63609 -16.53839,-5.93686 -0.84812,-8.05716 5.72483,-12.29778 12.72184,-12.72184 4.02858,-0.21203 8.48122,0.42406 9.75341,3.18046 0.63609,1.69625 0.21203,4.02859 -0.84812,5.08874 -3.18046,3.18046 -10.60154,4.02858 -16.11433,2.7564 m 5.51279,-2.96843 c 2.33234,-0.21203 6.57295,-1.06016 5.72483,-3.18046 -0.42406,-1.27219 -3.18046,-1.69625 -4.8767,-1.27219 -2.54437,0.42407 -4.45265,2.33234 -5.5128,4.02859 1.48421,0.42406 2.96843,0.42406 4.66467,0.42406"
             id="path38-1"
             style="fill:#0053e2;fill-opacity:1;stroke-width:2.12031" /><path
             class="st5"
             d="m 168.69192,-165.42017 c 0,0 -1.48421,4.24062 -1.48421,4.45265 -1.48422,-0.42406 -2.12031,-1.27219 -4.24061,-1.06016 -5.30077,0.6361 -6.57295,7.42108 -7.63311,12.72184 l -0.42406,3.18046 h -5.72483 c 1.48422,-6.36092 2.96843,-13.1459 4.66468,-19.50682 1.69624,0 3.81655,0 5.5128,0 l -0.21204,1.48422 c 2.12031,-1.27219 5.93686,-2.12031 9.54138,-1.27219"
             id="path40-5"
             style="fill:#0053e2;fill-opacity:1;stroke-width:2.12031" /><path
             class="st5"
             d="m 104.8707,-165.42017 c -1.48421,6.36092 -3.18046,12.93387 -4.45264,19.29479 h -5.724835 c 1.272183,-5.08873 2.332338,-10.17747 3.604518,-15.2662 h -2.968427 l 1.060154,-4.02859 z"
             id="path42-2"
             style="fill:#0053e2;fill-opacity:1;stroke-width:2.12031" /><path
             class="st5"
             d="m 105.93086,-170.29687 c 0,1.90827 -1.69625,2.7564 -3.60452,2.7564 -1.90828,0 -3.604537,-1.27219 -3.604537,-2.7564 0,-1.48422 1.696257,-2.7564 3.604537,-2.7564 2.1203,0 3.60452,1.27218 3.60452,2.7564"
             id="path44-7"
             style="fill:#0053e2;fill-opacity:1;stroke-width:2.12031" /></g></g></g></g></svg>
