<svg xmlns="http://www.w3.org/2000/svg" viewBox="0 0 200 220">
  <g transform="translate(100,85)">
    <path d="M0-70 C35-70 60-40 60-5 C60 30 35 55 0 60 C-35 55 -60 30 -60-5 C-60-40 -35-70 0-70Z" fill="#DD1D21"/>
    <path d="M0-55 C25-55 45-30 45-5 C45 20 25 40 0 45 C-25 40 -45 20 -45-5 C-45-30 -25-55 0-55Z" fill="#FDD835"/>
    <line x1="0" y1="-50" x2="0" y2="42" stroke="#DD1D21" stroke-width="2.5"/>
    <line x1="-12" y1="-48" x2="-8" y2="43" stroke="#DD1D21" stroke-width="2"/>
    <line x1="12" y1="-48" x2="8" y2="43" stroke="#DD1D21" stroke-width="2"/>
    <line x1="-24" y1="-42" x2="-18" y2="40" stroke="#DD1D21" stroke-width="2"/>
    <line x1="24" y1="-42" x2="18" y2="40" stroke="#DD1D21" stroke-width="2"/>
    <line x1="-35" y1="-30" x2="-28" y2="35" stroke="#DD1D21" stroke-width="2"/>
    <line x1="35" y1="-30" x2="28" y2="35" stroke="#DD1D21" stroke-width="2"/>
  </g>
  <text x="100" y="200" text-anchor="middle" font-family="Arial,sans-serif" font-weight="800" font-size="34" fill="#DD1D21">Shell</text>
</svg>
